# xmcd
#
# Track frame offsets: 
#        150
#        16240
#        33642
#        47020
#        65995
#        95487
#        114877
#        130085
#        147477
#        163440
#
# Disc length: 2413 seconds
#
# Revision: 5
# Processed by: cddbd v1.5.1PL0 Copyright (c) Steve Scherf et al.
# Submitted via: ExactAudioCopy v0.95a5
#
DISCID=90096b0a
DTITLE=Various Artist - Texas Blues Guitar
DYEAR=1997
DGENRE=Blues
TTITLE0=Johnny Copeland - Claim Jumper
TTITLE1=Anson Funderburgh and the Rockets - Love Me With a Feeling
TTITLE2=Phillip Walker and Otis Grand - Insomnia
TTITLE3=Smokin' Joe Kubek Band featuring Bnois King - Texas Cadillac
TTITLE4=Clarence "Gatemouth" Brown - Sometimes I Slip
TTITLE5=Joe "Guitar" Hughes - Texas Guitar Slinger
TTITLE6=Mike Morgan and the Crawl - I'm Worried
TTITLE7=W. C. Clark - Rough Edges
TTITLE8=U. P. Wilson - Half Step
TTITLE9=Clarence Hollimon - Blues for Carol
EXTD=LABEL =Rounder Records Corp.\nID =EDCD7037\nUPC =712136-7037-2
EXTD=3\nCOPYRIGHT =1997
EXTT0=
EXTT1=
EXTT2=
EXTT3=
EXTT4=
EXTT5=
EXTT6=
EXTT7=
EXTT8=
EXTT9=
PLAYORDER=
